<svg width="48" height="48" viewBox="0 0 48 48" xmlns="http://www.w3.org/2000/svg">
  <title>
    Alien icon
  </title>
  <g fill="none" fill-rule="evenodd">
    <path d="M11.32 10.32c7.003-7.002 18.355-7.003 25.36 0 7.002 7.003 7.003 18.355 0 25.36l-7.02 7.02c-3.126 3.125-8.196 3.122-11.32 0l-7.02-7.02c-7.002-7.003-7.003-18.355 0-25.36z" fill="#FFBAC8"/>
    <path d="M13.442 33.558l7.02 7.02c1.953 1.952 5.123 1.953 7.076 0l7.02-7.02c5.832-5.832 5.83-15.284 0-21.116-5.832-5.832-15.284-5.83-21.116 0-5.832 5.832-5.83 15.284 0 21.116zM36.68 10.32c7.002 7.003 7.003 18.355 0 25.36l-7.02 7.02c-3.126 3.125-8.196 3.122-11.32 0l-7.02-7.02c-7.002-7.003-7.003-18.355 0-25.36 7.003-7.002 18.355-7.003 25.36 0z" fill="#4E2B99"/>
    <path d="M30.44 33.923c.586-.586.586-1.536 0-2.122-.586-.584-1.536-.584-2.12 0-3.002 3.002-5.638 3.002-8.64 0-.584-.584-1.534-.584-2.12 0-.586.587-.586 1.537 0 2.123 4.172 4.172 8.708 4.172 12.88 0zM20.06 21.612c-.42-2.388-2.122-3.862-3.51-3.618-1.386.245-2.48 2.212-2.06 4.6.422 2.39 2.123 3.863 3.51 3.618 1.387-.244 2.482-2.21 2.06-4.6zm-8.523 1.503c-.688-3.9 1.324-7.516 4.493-8.075 3.17-.56 6.297 2.15 6.985 6.05.688 3.903-1.324 7.518-4.494 8.077-3.168.56-6.295-2.15-6.983-6.052zM33.51 22.594c.42-2.388-.674-4.355-2.06-4.6-1.388-.244-3.09 1.23-3.51 3.618-.422 2.39.673 4.356 2.06 4.6 1.387.245 3.088-1.23 3.51-3.618zm-8.525-1.503c.688-3.9 3.815-6.61 6.985-6.05 3.17.56 5.18 4.174 4.493 8.075-.688 3.9-3.815 6.61-6.984 6.052-3.17-.56-5.183-4.174-4.495-8.076zM15.457 12.85c.336.758 1.223 1.1 1.98.762.757-.336 1.098-1.223.76-1.98l-3.585-8.07c-.336-.756-1.223-1.097-1.98-.76-.757.336-1.098 1.223-.76 1.98l3.585 8.07zM29.802 11.632c-.337.757.004 1.644.76 1.98.758.337 1.645-.004 1.98-.76l3.587-8.07c.336-.757-.005-1.644-.762-1.98-.757-.337-1.644.004-1.98.76l-3.586 8.07z" fill="#4E2B99"/>
  </g>
</svg>