<svg width="44" height="40" viewBox="0 0 44 40" xmlns="http://www.w3.org/2000/svg">
  <title>
    Atom
  </title>
  <g fill="none" fill-rule="evenodd">
    <path d="M10.61 13.423C5.405 14.868 2 17.275 2 20s3.406 5.132 8.61 6.577c-1.35 5.227-.97 9.38 1.39 10.744 2.36 1.363 6.148-.384 10-4.167 3.852 3.783 7.64 5.53 10 4.168 2.36-1.362 2.74-5.516 1.39-10.743C38.595 25.132 42 22.725 42 20s-3.406-5.132-8.61-6.577c1.35-5.227.97-9.38-1.39-10.744-2.36-1.363-6.148.384-10 4.167-3.852-3.783-7.64-5.53-10-4.168-2.36 1.362-2.74 5.516-1.39 10.743z" fill="#FFBAC8"/>
    <path d="M22 29.5c11.806 0 21.5-3.878 21.5-9.5s-9.694-9.5-21.5-9.5S.5 14.378.5 20s9.694 9.5 21.5 9.5zm0-16c10.286 0 18.5 3.286 18.5 6.5s-8.214 6.5-18.5 6.5S3.5 23.214 3.5 20s8.214-6.5 18.5-6.5z" fill="#4E2B99"/>
    <path d="M30.227 24.75C36.13 14.526 37.62 4.192 32.75 1.38c-4.87-2.81-13.074 3.646-18.977 13.87C7.87 25.474 6.38 35.808 11.25 38.62c4.87 2.81 13.074-3.646 18.977-13.87zm-13.856-8C21.515 7.842 28.467 2.37 31.25 3.98c2.784 1.606 1.522 10.362-3.62 19.27-5.144 8.908-12.096 14.38-14.88 12.77-2.784-1.606-1.522-10.362 3.62-19.27z" fill="#4E2B99"/>
    <path d="M16.37 23.25C11.23 14.342 9.967 5.586 12.75 3.98c2.784-1.61 9.736 3.862 14.88 12.77 5.142 8.908 6.404 17.664 3.62 19.27-2.784 1.61-9.736-3.862-14.88-12.77zm13.857-8C24.324 5.026 16.12-1.43 11.25 1.38c-4.87 2.812-3.38 13.146 2.523 23.37C19.676 34.974 27.88 41.43 32.75 38.62c4.87-2.812 3.38-13.146-2.523-23.37z" fill="#4E2B99"/>
    <rect fill="#5F40A3" x="18" y="16" width="8" height="8" rx="4"/>
  </g>
</svg>