<svg width="44" height="48" viewBox="0 0 44 48" xmlns="http://www.w3.org/2000/svg">
  <title>
    Coffee icon
  </title>
  <g fill="none" fill-rule="evenodd">
    <path d="M33 23h-6l3-3v19l-3-3h6V23zm3 15.005c0 .544-.447.995-.998.995H27V20h8.002c.552 0 .998.445.998.995v17.01z" fill="#4E2B99"/>
    <path d="M10 17h20v24.007C30 42.66 28.657 44 27.006 44H12.994C11.34 44 10 42.66 10 41.007V17z" fill="#FFBAC8"/>
    <path d="M27 20H13v21.007C13 41.003 27.006 41 27.006 41 27.002 41 27 20 27 20zm3-3v24.007C30 42.66 28.657 44 27.006 44H12.994C11.34 44 10 42.66 10 41.007V17h20zM18 14h3V4h-3M24 14h3V9h-3M24 7h3V4h-3M12 13h3V7h-3" fill="#4E2B99"/>
  </g>
</svg>