<svg width="26" height="40" viewBox="0 0 26 40" xmlns="http://www.w3.org/2000/svg">
  <title>
    Coffee
  </title>
  <g fill="none" fill-rule="evenodd">
    <path d="M23 19h-6l3-3v19l-3-3h6V19zm3 15.005c0 .544-.447.995-.998.995H17V16h8.002c.552 0 .998.445.998.995v17.01z" fill="#4E2B99"/>
    <path d="M0 13h20v24.007C20 38.66 18.657 40 17.006 40H2.994C1.34 40 0 38.66 0 37.007V13z" fill="#FFBAC8"/>
    <path d="M17 16H3v21.007C3 37.003 17.006 37 17.006 37 17.002 37 17 16 17 16zm3-3v24.007C20 38.66 18.657 40 17.006 40H2.994C1.34 40 0 38.66 0 37.007V13h20zM8 10h3V0H8M14 10h3V5h-3M14 3h3V0h-3M2 9h3V3H2" fill="#4E2B99"/>
  </g>
</svg>