<svg width="22" height="22" viewBox="0 0 22 22" xmlns="http://www.w3.org/2000/svg">
  <title>
    Dribbble
  </title>
  <path d="M0 11c0-1.995.49-3.835 1.474-5.522.983-1.687 2.317-3.02 4.004-4.004C7.165.49 9.005 0 11 0s3.835.49 5.522 1.474c1.687.983 3.02 2.317 4.004 4.004C21.51 7.165 22 9.005 22 11s-.49 3.835-1.474 5.522c-.983 1.687-2.317 3.02-4.004 4.004C14.835 21.51 12.995 22 11 22s-3.835-.49-5.522-1.474c-1.687-.983-3.02-2.317-4.004-4.004C.49 14.835 0 12.995 0 11zm1.826 0c0 2.288.77 4.305 2.31 6.05.704-1.38 1.82-2.69 3.344-3.938 1.525-1.247 3.014-2.03 4.466-2.354-.22-.513-.433-.975-.638-1.386-2.523.807-5.25 1.21-8.184 1.21-.572 0-.997-.007-1.276-.022 0 .06-.004.132-.01.22-.008.088-.012.16-.012.22zm.286-2.266c.323.03.8.044 1.43.044 2.45 0 4.774-.33 6.974-.99-1.115-1.98-2.34-3.63-3.674-4.95-1.16.587-2.152 1.4-2.98 2.442-.83 1.04-1.413 2.193-1.75 3.454zm3.278 9.504c1.657 1.29 3.527 1.936 5.61 1.936 1.085 0 2.163-.205 3.234-.616-.293-2.508-.865-4.935-1.716-7.282-1.35.293-2.71 1.034-4.08 2.222-1.372 1.188-2.388 2.435-3.048 3.74zM8.756 2.134c1.29 1.335 2.486 3 3.586 4.994 1.995-.836 3.498-1.9 4.51-3.19C15.152 2.53 13.2 1.826 11 1.826c-.748 0-1.496.103-2.244.308zm4.378 6.556c.22.47.47 1.063.748 1.782 1.085-.103 2.266-.154 3.542-.154.91 0 1.81.022 2.706.066-.117-1.995-.836-3.77-2.156-5.324-.953 1.423-2.567 2.633-4.84 3.63zm1.298 3.322c.748 2.17 1.254 4.4 1.518 6.688 1.16-.748 2.105-1.71 2.838-2.882.733-1.173 1.173-2.442 1.32-3.806-1.07-.073-2.046-.11-2.926-.11-.807 0-1.723.037-2.75.11z" fill="#FE4F72" fill-rule="evenodd"/>
</svg>