<?xml version="1.0" encoding="UTF-8" standalone="no"?>
<svg width="22px" height="22px" viewBox="0 0 22 22" version="1.1" xmlns="http://www.w3.org/2000/svg" xmlns:xlink="http://www.w3.org/1999/xlink">
    <!-- Generator: Sketch 39.1 (31720) - http://www.bohemiancoding.com/sketch -->
    <title>Shape</title>
    <desc>Created with Sketch.</desc>
    <defs></defs>
    <g id="Page-1" stroke="none" stroke-width="1" fill="none" fill-rule="evenodd">
        <g id="1-copy-14" transform="translate(-1298.000000, -3170.000000)" fill="#FE4F72">
            <path d="M1298,3181 C1298,3179.00533 1298.49135,3177.16467 1299.474,3175.478 C1300.45667,3173.79133 1301.79135,3172.45667 1303.478,3171.474 C1305.16467,3170.49133 1307.00535,3170 1309,3170 C1310.99467,3170 1312.83535,3170.49133 1314.522,3171.474 C1316.20867,3172.45667 1317.54335,3173.79133 1318.526,3175.478 C1319.50867,3177.16467 1320,3179.00533 1320,3181 C1320,3182.99467 1319.50867,3184.83533 1318.526,3186.522 C1317.54335,3188.20867 1316.20867,3189.54333 1314.522,3190.526 C1312.83535,3191.50867 1310.99467,3192 1309,3192 C1307.00535,3192 1305.16467,3191.50867 1303.478,3190.526 C1301.79135,3189.54333 1300.45667,3188.20867 1299.474,3186.522 C1298.49135,3184.83533 1298,3182.99467 1298,3181 L1298,3181 Z M1299.826,3181 C1299.826,3183.288 1300.596,3185.30467 1302.136,3187.05 C1302.84,3185.67133 1303.95467,3184.35867 1305.48,3183.112 C1307.00535,3181.86533 1308.494,3181.08067 1309.946,3180.758 C1309.726,3180.24467 1309.51335,3179.78267 1309.308,3179.372 C1306.78535,3180.17867 1304.05735,3180.582 1301.124,3180.582 C1300.552,3180.582 1300.12667,3180.57467 1299.848,3180.56 C1299.848,3180.61867 1299.84435,3180.692 1299.837,3180.78 C1299.82967,3180.868 1299.826,3180.94133 1299.826,3181 L1299.826,3181 Z M1300.112,3178.734 C1300.43467,3178.76333 1300.91135,3178.778 1301.542,3178.778 C1303.99135,3178.778 1306.316,3178.448 1308.516,3177.788 C1307.40135,3175.808 1306.17667,3174.158 1304.842,3172.838 C1303.68335,3173.42467 1302.68967,3174.23867 1301.861,3175.28 C1301.03235,3176.32133 1300.44935,3177.47267 1300.112,3178.734 L1300.112,3178.734 Z M1303.39,3188.238 C1305.04735,3189.52867 1306.91735,3190.174 1309,3190.174 C1310.08535,3190.174 1311.16335,3189.96867 1312.234,3189.558 C1311.94067,3187.05 1311.36867,3184.62267 1310.518,3182.276 C1309.16867,3182.56933 1307.80835,3183.31 1306.437,3184.498 C1305.06567,3185.686 1304.05,3186.93267 1303.39,3188.238 L1303.39,3188.238 Z M1306.756,3172.134 C1308.04667,3173.46867 1309.242,3175.13333 1310.342,3177.128 C1312.33667,3176.292 1313.84,3175.22867 1314.852,3173.938 C1313.15067,3172.53 1311.2,3171.826 1309,3171.826 C1308.252,3171.826 1307.504,3171.92867 1306.756,3172.134 L1306.756,3172.134 Z M1311.134,3178.69 C1311.354,3179.15933 1311.60335,3179.75333 1311.882,3180.472 C1312.96735,3180.36933 1314.148,3180.318 1315.424,3180.318 C1316.33335,3180.318 1317.23535,3180.34 1318.13,3180.384 C1318.01267,3178.38933 1317.294,3176.61467 1315.974,3175.06 C1315.02067,3176.48267 1313.40735,3177.69267 1311.134,3178.69 L1311.134,3178.69 Z M1312.432,3182.012 C1313.18,3184.18267 1313.686,3186.412 1313.95,3188.7 C1315.10867,3187.952 1316.05467,3186.99133 1316.788,3185.818 C1317.52135,3184.64467 1317.96135,3183.376 1318.108,3182.012 C1317.03735,3181.93867 1316.062,3181.902 1315.182,3181.902 C1314.37535,3181.902 1313.45867,3181.93867 1312.432,3182.012 L1312.432,3182.012 Z" id="Shape"></path>
        </g>
    </g>
</svg>