<svg width="60" height="58" viewBox="0 0 60 58" xmlns="http://www.w3.org/2000/svg">
  <title>
    Galaxy
  </title>
  <g fill="none" fill-rule="evenodd">
    <ellipse fill="#4E2B99" cx="54.4" cy="15.096" rx="2.4" ry="2.384"/>
    <ellipse fill="#FFBAC8" cx="13.2" cy="44.096" rx="1.2" ry="1.192"/>
    <ellipse fill="#4E2B99" cx="58.8" cy="37.74" rx="1.2" ry="1.192"/>
    <ellipse fill="#4E2B99" cx="23.2" cy="9.534" rx="1.6" ry="1.589"/>
    <ellipse fill="#4E2B99" cx="40" cy="56.411" rx="1.6" ry="1.589"/>
    <ellipse fill="#4E2B99" cx="7.6" cy="34.562" rx="2.8" ry="2.781"/>
    <ellipse fill="#FFBAC8" cx="50.8" cy="6.753" rx="1.2" ry="1.192"/>
    <ellipse fill="#FFBAC8" cx="2.8" cy="25.822" rx="1.2" ry="1.192"/>
    <ellipse fill="#FFBAC8" cx="8.4" cy="49.658" rx="1.2" ry="1.192"/>
    <ellipse fill="#4E2B99" cx="31.6" cy="2.781" rx="2.8" ry="2.781"/>
    <ellipse fill="#4E2B99" cx="8" cy="11.918" rx="1.6" ry="1.589"/>
    <ellipse fill="#4E2B99" cx="5.6" cy="43.699" rx="1.6" ry="1.589"/>
    <ellipse fill="#4E2B99" cx="20" cy="48.466" rx="1.6" ry="1.589"/>
    <ellipse fill="#4E2B99" cx="53.6" cy="42.11" rx="1.6" ry="1.589"/>
    <ellipse fill="#4E2B99" cx="53.6" cy="26.219" rx="1.6" ry="1.589"/>
    <ellipse fill="#4E2B99" cx="47.2" cy="15.89" rx="1.6" ry="1.589"/>
    <ellipse fill="#FFBAC8" cx="16" cy="14.301" rx="1.6" ry="1.589"/>
    <ellipse fill="#FFBAC8" cx="5.6" cy="19.068" rx="1.6" ry="1.589"/>
    <ellipse fill="#FFBAC8" cx="1.6" cy="37.342" rx="1.6" ry="1.589"/>
    <ellipse fill="#FFBAC8" cx="54.4" cy="33.37" rx="1.6" ry="1.589"/>
    <ellipse fill="#FFBAC8" cx="30.4" cy="50.849" rx="2.4" ry="2.384"/>
    <ellipse fill="#FFBAC8" cx="46.8" cy="11.521" rx="1.2" ry="1.192"/>
    <g transform="matrix(-1 0 0 1 50.2 11.507)">
      <circle fill="#FFBAC8" cx="18.701" cy="17.993" r="8.5"/>
      <path d="M28.7 17.993c0-5.523-4.476-10-10-10-5.522 0-10 4.477-10 10s4.478 10 10 10c5.524 0 10-4.477 10-10zm-17 0c0-3.866 3.135-7 7-7 3.867 0 7 3.134 7 7s-3.133 7-7 7c-3.865 0-7-3.134-7-7z" fill="#4E2B99"/>
      <path d="M4.7 21.493c0 7.456 6.044 13.5 13.5 13.5v-3c-5.8 0-10.5-4.7-10.5-10.5s4.7-10.5 10.5-10.5v-3c-7.456 0-13.5 6.044-13.5 13.5z" fill="#4E2B99"/>
      <path d="M22.7 31.993c7.72 0 14-6.03 14-13.5h-3c0 5.785-4.91 10.5-11 10.5s-11-4.715-11-10.5h-3c0 7.47 6.28 13.5 14 13.5zM14.7 3.993c-7.72 0-14 6.03-14 13.5h3c0-5.785 4.91-10.5 11-10.5s11 4.715 11 10.5h3c0-7.47-6.28-13.5-14-13.5z" fill="#4E2B99"/>
      <path d="M33.7 14.493c0-7.456-6.044-13.5-13.5-13.5v3c5.8 0 10.5 4.7 10.5 10.5s-4.7 10.5-10.5 10.5v3c7.456 0 13.5-6.044 13.5-13.5z" fill="#4E2B99"/>
    </g>
  </g>
</svg>