<svg width="60" height="48" viewBox="0 0 60 48" xmlns="http://www.w3.org/2000/svg">
  <title>
    Galaxy icon
  </title>
  <g fill="none" fill-rule="evenodd">
    <ellipse fill="#4E2B99" cx="50.4" cy="10.096" rx="2.4" ry="2.384"/>
    <ellipse fill="#4E2B99" cx="43.2" cy="35.192" rx="1.2" ry="1.192"/>
    <ellipse fill="#4E2B99" cx="6.2" cy="39.192" rx="1.2" ry="1.192"/>
    <ellipse fill="#4E2B99" cx="19.2" cy="4.534" rx="1.6" ry="1.589"/>
    <ellipse fill="#4E2B99" cx="41" cy="44.411" rx="1.6" ry="1.589"/>
    <ellipse fill="#FFBAC8" cx="56.8" cy="24.781" rx="2.8" ry="2.781"/>
    <ellipse fill="#FFBAC8" cx="46.8" cy="1.753" rx="1.2" ry="1.192"/>
    <ellipse fill="#FFBAC8" cx="6.8" cy="20.822" rx="1.2" ry="1.192"/>
    <ellipse fill="#FFBAC8" cx="11.7" cy="38.688" rx="1.7" ry="1.688"/>
    <ellipse fill="#4E2B99" cx="31.8" cy="3.781" rx="2.8" ry="2.781"/>
    <ellipse fill="#4E2B99" cx="4.5" cy="7.414" rx="2.1" ry="2.086"/>
    <ellipse fill="#4E2B99" cx="1.6" cy="22.589" rx="1.6" ry="1.589"/>
    <ellipse fill="#4E2B99" cx="16" cy="43.466" rx="1.6" ry="1.589"/>
    <ellipse fill="#FFBAC8" cx="49.6" cy="37.11" rx="1.6" ry="1.589"/>
    <ellipse fill="#4E2B99" cx="49.6" cy="21.219" rx="1.6" ry="1.589"/>
    <ellipse fill="#4E2B99" cx="43.2" cy="10.89" rx="1.6" ry="1.589"/>
    <ellipse fill="#FFBAC8" cx="12" cy="9.301" rx="1.6" ry="1.589"/>
    <ellipse fill="#FFBAC8" cx="1.6" cy="14.068" rx="1.6" ry="1.589"/>
    <ellipse fill="#FFBAC8" cx="5.6" cy="31.582" rx="2.6" ry="2.582"/>
    <ellipse fill="#4E2B99" cx="50.4" cy="28.37" rx="1.6" ry="1.589"/>
    <ellipse fill="#FFBAC8" cx="26.4" cy="45.849" rx="2.4" ry="2.384"/>
    <ellipse fill="#FFBAC8" cx="42.8" cy="6.521" rx="1.2" ry="1.192"/>
    <g transform="matrix(-1 0 0 1 46.2 6.507)">
      <circle fill="#FFBAC8" cx="18.701" cy="17.993" r="8.5"/>
      <path d="M28.7 17.993c0-5.523-4.476-10-10-10-5.522 0-10 4.477-10 10s4.478 10 10 10c5.524 0 10-4.477 10-10zm-17 0c0-3.866 3.135-7 7-7 3.867 0 7 3.134 7 7s-3.133 7-7 7c-3.865 0-7-3.134-7-7z" fill="#4E2B99"/>
      <path d="M4.7 21.493c0 7.456 6.044 13.5 13.5 13.5v-3c-5.8 0-10.5-4.7-10.5-10.5s4.7-10.5 10.5-10.5v-3c-7.456 0-13.5 6.044-13.5 13.5z" fill="#4E2B99"/>
      <path d="M22.7 31.993c7.72 0 14-6.03 14-13.5h-3c0 5.785-4.91 10.5-11 10.5s-11-4.715-11-10.5h-3c0 7.47 6.28 13.5 14 13.5zM14.7 3.993c-7.72 0-14 6.03-14 13.5h3c0-5.785 4.91-10.5 11-10.5s11 4.715 11 10.5h3c0-7.47-6.28-13.5-14-13.5z" fill="#4E2B99"/>
      <path d="M33.7 14.493c0-7.456-6.044-13.5-13.5-13.5v3c5.8 0 10.5 4.7 10.5 10.5s-4.7 10.5-10.5 10.5v3c7.456 0 13.5-6.044 13.5-13.5z" fill="#4E2B99"/>
    </g>
  </g>
</svg>