<svg width="23" height="22" viewBox="0 0 23 22" xmlns="http://www.w3.org/2000/svg">
  <title>
    GitHub
  </title>
  <path d="M11.277 0C5.05 0 0 5.05 0 11.28c0 4.982 3.23 9.21 7.713 10.7.564.104.77-.244.77-.544 0-.267-.01-.976-.015-1.917-3.137.68-3.8-1.514-3.8-1.514-.512-1.303-1.252-1.65-1.252-1.65-1.024-.7.078-.685.078-.685 1.132.08 1.727 1.164 1.727 1.164 1.007 1.723 2.64 1.225 3.284.936.102-.728.394-1.225.716-1.507-2.505-.284-5.138-1.252-5.138-5.574 0-1.232.44-2.24 1.16-3.028-.115-.285-.502-1.432.112-2.984 0 0 .947-.304 3.1 1.156.9-.25 1.866-.375 2.825-.38.957.005 1.92.13 2.822.38 2.153-1.46 3.1-1.156 3.1-1.156.614 1.552.227 2.7.11 2.984.724.788 1.16 1.796 1.16 3.027 0 4.332-2.637 5.285-5.15 5.564.406.348.766 1.037.766 2.09 0 1.506-.013 2.723-.013 3.092 0 .302.203.653.775.543 4.478-1.496 7.707-5.72 7.707-10.7 0-6.23-5.05-11.28-11.28-11.28" fill="#FE4F72" fill-rule="evenodd"/>
</svg>