<?xml version="1.0" encoding="UTF-8" standalone="no"?>
<svg width="23px" height="22px" viewBox="0 0 23 22" version="1.1" xmlns="http://www.w3.org/2000/svg" xmlns:xlink="http://www.w3.org/1999/xlink">
    <!-- Generator: Sketch 39.1 (31720) - http://www.bohemiancoding.com/sketch -->
    <title>Fill 3</title>
    <desc>Created with Sketch.</desc>
    <defs></defs>
    <g id="Page-1" stroke="none" stroke-width="1" fill="none" fill-rule="evenodd">
        <g id="1-copy-14" transform="translate(-1188.000000, -3169.000000)" fill="#FE4F72">
            <path d="M1199.27734,3169 C1193.05015,3169 1188,3174.04946 1188,3180.27873 C1188,3185.26172 1191.2313,3189.48865 1195.71301,3190.98001 C1196.2773,3191.08387 1196.48293,3190.73561 1196.48293,3190.4365 C1196.48293,3190.16925 1196.47324,3189.45957 1196.4677,3188.51863 C1193.33057,3189.19993 1192.66866,3187.0065 1192.66866,3187.0065 C1192.15561,3185.70345 1191.41616,3185.35658 1191.41616,3185.35658 C1190.39214,3184.65728 1191.4937,3184.67113 1191.4937,3184.67113 C1192.62573,3184.75075 1193.22117,3185.83362 1193.22117,3185.83362 C1194.22719,3187.55693 1195.86118,3187.05912 1196.5037,3186.7704 C1196.60617,3186.04202 1196.89766,3185.5449 1197.21961,3185.26311 C1194.71531,3184.97854 1192.08222,3184.01061 1192.08222,3179.68883 C1192.08222,3178.45779 1192.52188,3177.45039 1193.24333,3176.66247 C1193.12701,3176.37721 1192.73997,3175.22996 1193.35411,3173.67766 C1193.35411,3173.67766 1194.30058,3173.3744 1196.45524,3174.83392 C1197.35463,3174.58328 1198.31979,3174.45865 1199.27873,3174.45381 C1200.23697,3174.45865 1201.20144,3174.58328 1202.10221,3174.83392 C1204.25549,3173.3744 1205.20058,3173.67766 1205.20058,3173.67766 C1205.81609,3175.22996 1205.42906,3176.37721 1205.31343,3176.66247 C1206.03627,3177.45039 1206.47246,3178.45779 1206.47246,3179.68883 C1206.47246,3184.02168 1203.83522,3184.97508 1201.3233,3185.2541 C1201.72764,3185.60237 1202.08837,3186.29058 1202.08837,3187.34299 C1202.08837,3188.85028 1202.07452,3190.06678 1202.07452,3190.4365 C1202.07452,3190.73838 1202.27808,3191.08941 1202.84998,3190.97932 C1207.32823,3189.48449 1210.55676,3185.26034 1210.55676,3180.27873 C1210.55676,3174.04946 1205.5066,3169 1199.27734,3169" id="Fill-3"></path>
        </g>
    </g>
</svg>