<svg width="47" height="41" viewBox="0 0 47 41" xmlns="http://www.w3.org/2000/svg">
  <title>
    Internet
  </title>
  <g fill="none" fill-rule="evenodd">
    <path d="M45.317 14.513c0-4.08-1.69-10.203-9.32-12.243C30.194 1.122 27 3.877 24.9 6.04l-1.26 1.312-1.262-1.312c-2.1-2.163-5.294-4.918-11.096-3.77C3.65 4.31 2 10.432 2 14.513 2 26.757 23.66 39 23.66 39s21.657-12.243 21.657-24.487z" fill="#FFBAC8"/>
    <path d="M36.384.82c-5.49-1.09-9.01.52-12.56 4.175l-.176.2-.188-.194C19.905 1.34 16.384-.27 10.99.8 3.713 2.74.5 8.138.5 14.513c0 5.927 4.28 11.977 11.36 17.98 2.418 2.05 5.003 3.95 7.59 5.655.903.597 1.745 1.127 2.5 1.585.267.16.504.302.71.422.124.073.212.123.26.15l.74.418.737-.417.26-.15c.206-.12.443-.262.71-.423.755-.458 1.597-.988 2.502-1.585 2.584-1.705 5.17-3.605 7.588-5.656 7.078-6.002 11.36-12.052 11.36-17.98 0-6.354-3.248-11.77-10.434-13.69zm-2.866 29.384c-2.32 1.966-4.81 3.797-7.3 5.44-.873.574-1.682 1.084-2.406 1.523-.43.26-.15.095-.15.095l-.157-.095c-.724-.44-1.533-.95-2.405-1.524-2.49-1.642-4.982-3.473-7.3-5.44C7.34 24.728 3.5 19.3 3.5 14.514c0-5.136 2.46-9.268 8.17-10.794 4.132-.816 6.722.367 9.632 3.365l1.256 1.306 1.08 1.126 1.083-1.125 1.26-1.31c2.907-2.993 5.496-4.176 9.725-3.34 5.622 1.508 8.112 5.66 8.112 10.773 0 4.786-3.84 10.214-10.3 15.69z" fill="#5F40A3"/>
    <path fill="#4E2B99" d="M8.257 16.336l1.486.208.974-6.94-1.486-.208M22.906 30.23l1.455-.363-1.692-6.792-1.456.363"/>
    <path fill="#4E2B99" d="M21.212 23.438l.363 1.455 3.88-.967-.362-1.456M21.878 26.106l.362 1.456 2.91-.726-.362-1.455M22.543 28.775l.363 1.455 3.88-.968-.362-1.455M28.158 15.552l1.478.26L30.85 8.92l-1.476-.262"/>
    <path fill="#4E2B99" d="M29.374 8.658l-.26 1.478 3.94.694.26-1.477M28.896 11.367l-.26 1.477 2.954.52.26-1.476M28.42 14.075l-.262 1.477 3.94.695.26-1.478M22.245 18.58l1.495.13.61-6.974-1.495-.13"/>
    <path fill="#4E2B99" d="M21.61 11.496l-.13 1.494 3.984.35.13-1.495M31.407 26.948l1.442-.413-1.93-6.73-1.443.414"/>
    <path fill="#4E2B99" d="M28.276 20.564l.413 1.442 3.844-1.103-.413-1.442M14.434 17.387l1.467-.312-1.455-6.847-1.467.312M17.368 16.763l1.467-.312-1.455-6.846-1.467.312"/>
    <path fill="#4E2B99" d="M17.37 16.764l1.21-.885-4.13-5.65-1.21.885M11.956 26.487l1.435.438 2.047-6.694-1.434-.438M14.825 27.364l1.435.438 2.046-6.694-1.434-.44"/>
    <path fill="#4E2B99" d="M14.827 27.366l1.488-.187-.875-6.945-1.488.187M34.978 17.555l1.467.312L37.9 11.02l-1.466-.312"/>
    <path d="M36.122 12.175l1.78-1.155-.885 4.157-1.155-1.78 1.956.417c.274.058.535-.112.593-.386l.364-1.707c-.112.53.224 1.066.78 1.185l-3.432-.73zm3.744-.737c.265.056.433.325.375.595l-.362 1.707c-.23 1.08-1.284 1.772-2.372 1.54l-1.956-.415.884-4.157 3.432.73z" fill="#4E2B99"/>
    <path d="M38.235 15.436c-.125-.027-.216-.162-.186-.305l-.626 2.945 1.467.312.626-2.944c.145-.68-.295-1.33-.97-1.474l-2.44-.52-.312 1.467 2.44.52z" fill="#4E2B99"/>
  </g>
</svg>