<svg width="22" height="23" viewBox="0 0 22 23" xmlns="http://www.w3.org/2000/svg">
  <title>
    Pinterest
  </title>
  <path d="M11.02.033c-6.075 0-11 4.924-11 11 0 4.66 2.9 8.64 6.99 10.243-.095-.87-.182-2.205.04-3.155.2-.857 1.29-5.467 1.29-5.467s-.33-.66-.33-1.633c0-1.53.886-2.67 1.99-2.67.94 0 1.392.703 1.392 1.548 0 .944-.6 2.355-.91 3.663-.26 1.095.548 1.988 1.628 1.988 1.955 0 3.458-2.062 3.458-5.037 0-2.633-1.892-4.475-4.595-4.475-3.13 0-4.967 2.348-4.967 4.775 0 .944.364 1.96.82 2.51.09.108.102.204.075.315-.082.348-.268 1.095-.304 1.247-.048.202-.16.245-.37.148-1.372-.64-2.23-2.648-2.23-4.262 0-3.47 2.52-6.656 7.267-6.656 3.816 0 6.782 2.72 6.782 6.353 0 3.79-2.39 6.842-5.71 6.842-1.113 0-2.16-.58-2.52-1.263L9.13 18.66c-.25.954-.92 2.152-1.367 2.882 1.03.32 2.123.49 3.257.49 6.075 0 11-4.924 11-11 0-6.075-4.925-11-11-11" fill="#FE4F72" fill-rule="evenodd"/>
</svg>