<?xml version="1.0" encoding="UTF-8" standalone="no"?>
<svg width="22px" height="23px" viewBox="0 0 22 23" version="1.1" xmlns="http://www.w3.org/2000/svg" xmlns:xlink="http://www.w3.org/1999/xlink">
    <!-- Generator: Sketch 39.1 (31720) - http://www.bohemiancoding.com/sketch -->
    <title>Fill 4</title>
    <desc>Created with Sketch.</desc>
    <defs></defs>
    <g id="Page-1" stroke="none" stroke-width="1" fill="none" fill-rule="evenodd">
        <g id="1-copy-14" transform="translate(-1243.000000, -3169.000000)" fill="#FE4F72">
            <path d="M1254.02001,3169.03278 C1247.94472,3169.03278 1243.01933,3173.95749 1243.01933,3180.03278 C1243.01933,3184.69311 1245.91872,3188.67361 1250.01118,3190.27606 C1249.91473,3189.40605 1249.82773,3188.07067 1250.04895,3187.12107 C1250.24925,3186.26251 1251.33914,3181.65277 1251.33914,3181.65277 C1251.33914,3181.65277 1251.01001,3180.99384 1251.01001,3180.01996 C1251.01001,3178.49035 1251.89622,3177.34853 1253.00027,3177.34853 C1253.93908,3177.34853 1254.39229,3178.05264 1254.39229,3178.89771 C1254.39229,3179.84191 1253.79138,3181.25283 1253.48114,3182.56055 C1253.22215,3183.65516 1254.03012,3184.54811 1255.10989,3184.54811 C1257.06507,3184.54811 1258.56838,3182.48636 1258.56838,3179.51077 C1258.56838,3176.87711 1256.67592,3175.03523 1253.97347,3175.03523 C1250.84343,3175.03523 1249.00627,3177.38293 1249.00627,3179.80954 C1249.00627,3180.75442 1249.37047,3181.76877 1249.82504,3182.31978 C1249.91473,3182.42836 1249.92822,3182.52413 1249.90125,3182.63541 C1249.81762,3182.98275 1249.63215,3183.73002 1249.59573,3183.88244 C1249.54784,3184.0841 1249.43589,3184.12659 1249.22749,3184.03014 C1247.85367,3183.3901 1246.99512,3181.38164 1246.99512,3179.7684 C1246.99512,3176.29844 1249.51615,3173.11175 1254.26348,3173.11175 C1258.07874,3173.11175 1261.0449,3175.83106 1261.0449,3179.46491 C1261.0449,3183.25589 1258.65404,3186.30703 1255.3365,3186.30703 C1254.22166,3186.30703 1253.17427,3185.72769 1252.81547,3185.04381 C1252.81547,3185.04381 1252.26378,3187.144 1252.13025,3187.65859 C1251.88138,3188.61426 1251.21099,3189.81205 1250.7625,3190.54247 C1251.79168,3190.8608 1252.88561,3191.03278 1254.02001,3191.03278 C1260.09462,3191.03278 1265.02001,3186.10807 1265.02001,3180.03278 C1265.02001,3173.95749 1260.09462,3169.03278 1254.02001,3169.03278" id="Fill-4"></path>
        </g>
    </g>
</svg>