<?xml version="1.0" encoding="UTF-8" standalone="no"?>
<svg width="38px" height="39px" viewBox="0 0 38 39" version="1.1" xmlns="http://www.w3.org/2000/svg" xmlns:xlink="http://www.w3.org/1999/xlink">
    <!-- Generator: Sketch 39.1 (31720) - http://www.bohemiancoding.com/sketch -->
    <title>Group</title>
    <desc>Created with Sketch.</desc>
    <defs>
        <polygon id="path-1" points="17 36 0 4 34 4"></polygon>
        <mask id="mask-2" maskContentUnits="userSpaceOnUse" maskUnits="objectBoundingBox" x="0" y="0" width="34" height="32" fill="white">
            <use xlink:href="#path-1"></use>
        </mask>
        <path d="M1,2 C1,0.8954305 1.88926172,0 3.00174332,0 L30.9982567,0 C32.103789,0 33,0.887729645 33,2 L33,2 C33,3.1045695 32.1107383,4 30.9982567,4 L3.00174332,4 C1.89621101,4 1,3.11227036 1,2 L1,2 Z" id="path-3"></path>
        <mask id="mask-4" maskContentUnits="userSpaceOnUse" maskUnits="objectBoundingBox" x="-3" y="-3" width="38" height="10">
            <rect x="-2" y="-3" width="38" height="10" fill="white"></rect>
            <use xlink:href="#path-3" fill="black"></use>
        </mask>
    </defs>
    <g id="Page-1" stroke="none" stroke-width="1" fill="none" fill-rule="evenodd">
        <g id="1-copy-14" transform="translate(-204.000000, -325.000000)">
            <g id="Group" transform="translate(206.000000, 328.000000)">
                <use id="Rectangle-29" stroke="#4E2B99" mask="url(#mask-2)" stroke-width="6" stroke-linejoin="round" fill="#FFBAC8" xlink:href="#path-1"></use>
                <circle id="Oval-3" fill="#4E2B99" cx="18.5" cy="19.5" r="4.5"></circle>
                <circle id="Oval-5" fill="#4E2B99" cx="13.5" cy="11.5" r="3.5"></circle>
                <g id="Rectangle-29">
                    <use fill="#FFBAC8" fill-rule="evenodd" xlink:href="#path-3"></use>
                    <use stroke="#4E2B99" mask="url(#mask-4)" stroke-width="6" xlink:href="#path-3"></use>
                </g>
                <circle id="Oval-4" fill="#4E2B99" cx="21.25" cy="11.25" r="2.75"></circle>
            </g>
        </g>
    </g>
</svg>