<svg width="44" height="48" viewBox="0 0 44 48" xmlns="http://www.w3.org/2000/svg">
  <title>
    Sauron icon
  </title>
  <g fill="none" fill-rule="evenodd">
    <path d="M36 18.5C36 34.24 29.732 42 22 42S8 34.24 8 18.5c0-3.145.25-10.17.712-13C10.562 16.83 13.5 27 22 27S33.437 16.83 35.288 5.5c.462 2.83.712 9.855.712 13z" fill="#FFBAC8"/>
    <path d="M22 40.5c-7.35 0-13-8.44-13-22.5 0-3.98-.174-3.852.875-.777.497 1.458 1.042 2.768 1.653 3.96C13.953 25.917 17.378 28.5 22 28.5c4.62 0 8.047-2.583 10.472-7.317C34.37 17.478 34.42 12.66 34.5 16.5c.016.78 0 1.33 0 2 0 14.06-5.15 22-12.5 22zM36.768 5.258h-2.96C31.54 19.136 28.28 25.5 22 25.5s-9.54-6.364-11.807-20.242h-2.96C6.814 7.808 6.5 14.368 6.5 18.5c0 15.514 6.15 25 15.5 25s15.5-9.486 15.5-25c0-4.13-.315-10.69-.732-13.242z" fill="#4E2B99"/>
    <path d="M31 12c-1.174-4.052-4.76-7-9-7s-7.826 2.948-9 7c1.174 4.052 4.76 7 9 7s7.826-2.948 9-7z" fill="#FFBAC8"/>
    <path d="M28.12 12.835C27.286 9.965 24.8 8 22 8s-5.287 1.964-6.12 4.835v-1.67C16.714 14.035 19.2 16 22 16s5.287-1.964 6.12-4.835v1.67zM22 19c-4.24 0-7.826-2.948-9-7 1.174-4.052 4.76-7 9-7s7.826 2.948 9 7c-1.174 4.052-4.76 7-9 7z" fill="#4E2B99"/>
    <path d="M20 12c0 2.5 2 4.25 2 4.25s2-1.75 2-4.25-2-4.25-2-4.25S20 9.5 20 12z" fill="#4E2B99"/>
  </g>
</svg>