<svg width="32" height="39" viewBox="0 0 32 39" xmlns="http://www.w3.org/2000/svg">
  <title>
    Sauron
  </title>
  <g fill="none" fill-rule="evenodd">
    <path d="M30 13.5C30 29.24 23.732 37 16 37S2 29.24 2 13.5c0-3.145.25-10.17.712-13C4.562 11.83 7.5 22 16 22S27.437 11.83 29.288.5c.462 2.83.712 9.855.712 13z" fill="#FFBAC8"/>
    <path d="M16 35.5C8.65 35.5 3 27.06 3 13c0-3.98-.174-3.852.875-.777.497 1.458 1.042 2.768 1.653 3.96C7.953 20.917 11.378 23.5 16 23.5c4.62 0 8.047-2.583 10.472-7.317C28.37 12.478 28.42 7.66 28.5 11.5c.016.78 0 1.33 0 2 0 14.06-5.15 22-12.5 22zM30.768.258h-2.96C25.54 14.136 22.28 20.5 16 20.5S6.46 14.136 4.193.258h-2.96C.814 2.808.5 9.368.5 13.5c0 15.514 6.15 25 15.5 25s15.5-9.486 15.5-25c0-4.13-.315-10.69-.732-13.242z" fill="#4E2B99"/>
    <path d="M25 7c-1.174-4.052-4.76-7-9-7S8.174 2.948 7 7c1.174 4.052 4.76 7 9 7s7.826-2.948 9-7z" fill="#FFBAC8"/>
    <path d="M22.12 7.835C21.286 4.965 18.8 3 16 3s-5.287 1.964-6.12 4.835v-1.67C10.714 9.035 13.2 11 16 11s5.287-1.964 6.12-4.835v1.67zM16 14c-4.24 0-7.826-2.948-9-7 1.174-4.052 4.76-7 9-7s7.826 2.948 9 7c-1.174 4.052-4.76 7-9 7z" fill="#4E2B99"/>
    <path d="M14 7c0 2.5 2 4.25 2 4.25S18 9.5 18 7s-2-4.25-2-4.25S14 4.5 14 7z" fill="#4E2B99"/>
  </g>
</svg>