<?xml version="1.0" encoding="UTF-8" standalone="no"?>
<svg width="32px" height="39px" viewBox="0 0 32 39" version="1.1" xmlns="http://www.w3.org/2000/svg" xmlns:xlink="http://www.w3.org/1999/xlink">
    <!-- Generator: Sketch 39.1 (31720) - http://www.bohemiancoding.com/sketch -->
    <title>Group 14</title>
    <desc>Created with Sketch.</desc>
    <defs>
        <path d="M18,7 C16.8258366,2.94815637 13.2406255,0 9,0 C4.75937448,0 1.17416344,2.94815637 -6.8383522e-14,7 C1.17416344,11.0518436 4.75937448,14 9,14 C13.2406255,14 16.8258366,11.0518436 18,7 L18,7 Z" id="path-1"></path>
        <mask id="mask-2" maskContentUnits="userSpaceOnUse" maskUnits="objectBoundingBox" x="0" y="0" width="18" height="14" fill="white">
            <use xlink:href="#path-1"></use>
        </mask>
    </defs>
    <g id="Page-1" stroke="none" stroke-width="1" fill="none" fill-rule="evenodd">
        <g id="1-copy-14" transform="translate(-242.000000, -426.000000)">
            <g id="Group-14" transform="translate(244.000000, 426.000000)">
                <path d="M28,13.5 C28,29.2401154 21.7319865,37 14,37 C6.2680135,37 0,29.2401154 0,13.5 C0,10.3550185 0.250236284,3.32901605 0.712387818,0.500003223 C2.56322975,11.8297298 5.5,22 14,22 C22.5,22 25.4367702,11.8297298 27.2876117,0.499999975 C27.7497637,3.32901605 28,10.3550185 28,13.5 Z" id="Combined-Shape" stroke="#4E2B99" stroke-width="3" stroke-linejoin="bevel" fill="#FFBAC8"></path>
                <g id="Oval-151-+-Oval-153" transform="translate(5.000000, 0.000000)">
                    <use id="Oval-151" stroke="#4E2B99" mask="url(#mask-2)" stroke-width="6" fill="#FFBAC8" xlink:href="#path-1"></use>
                    <path d="M7,7 C7,9.5 9,11.25 9,11.25 C9,11.25 11,9.5 11,7 C11,4.5 9,2.75 9,2.75 C9,2.75 7,4.5 7,7 Z" id="Oval-153" fill="#4E2B99"></path>
                </g>
            </g>
        </g>
    </g>
</svg>