<?xml version="1.0" encoding="UTF-8" standalone="no"?>
<svg width="27px" height="39px" viewBox="0 0 27 39" version="1.1" xmlns="http://www.w3.org/2000/svg" xmlns:xlink="http://www.w3.org/1999/xlink">
    <!-- Generator: Sketch 39.1 (31720) - http://www.bohemiancoding.com/sketch -->
    <title>Group 3</title>
    <desc>Created with Sketch.</desc>
    <defs>
        <path d="M27.0000008,0 L7.99999982,0 L7.99999938,18.824398 L2.21376114,26.411099 C-0.799996838,30.3626267 0.377209528,35.3267216 4.84650991,37.5003614 L4.7992482,37.4773757 C9.26703317,39.6502785 15.5100097,38.3519824 18.7404778,34.5808758 L25.6977539,26.4592571 C26.4169645,25.6196821 27,24.0514773 27.0000001,22.9403602 L27.0000008,0 Z" id="path-1"></path>
        <mask id="mask-2" maskContentUnits="userSpaceOnUse" maskUnits="objectBoundingBox" x="0" y="0" width="26.4560575" height="38.5304088" fill="white">
            <use xlink:href="#path-1"></use>
        </mask>
        <mask id="mask-4" maskContentUnits="userSpaceOnUse" maskUnits="objectBoundingBox" x="0" y="0" width="26.4560575" height="38.5304088" fill="white">
            <use xlink:href="#path-1"></use>
        </mask>
    </defs>
    <g id="Page-1" stroke="none" stroke-width="1" fill="none" fill-rule="evenodd">
        <g id="1-copy-14" transform="translate(-453.000000, -273.000000)">
            <g id="Group-3" transform="translate(453.000000, 273.000000)">
                <mask id="mask-3" fill="white">
                    <use xlink:href="#path-1"></use>
                </mask>
                <g id="Combined-Shape" stroke="#4E2B99" mask="url(#mask-2)" stroke-width="6" fill="#FFBAC8">
                    <use mask="url(#mask-4)" xlink:href="#path-1"></use>
                </g>
                <ellipse id="Oval-312" stroke="#4E2B99" stroke-width="3" mask="url(#mask-3)" cx="24.7916667" cy="22.5196078" rx="6.04166667" ry="6.02941176"></ellipse>
                <polygon id="Rectangle-341" fill="#4E2B99" mask="url(#mask-3)" points="11 5 24 5 24 8 11 8"></polygon>
                <polygon id="Rectangle-341" fill="#4E2B99" mask="url(#mask-3)" points="11 10 24 10 24 13 11 13"></polygon>
                <polygon id="Rectangle-341" fill="#4E2B99" mask="url(#mask-3)" points="11 15 24 15 24 18 11 18"></polygon>
                <polygon id="Rectangle-341" fill="#4E2B99" mask="url(#mask-3)" points="7 20 20 20 20 23 7 23"></polygon>
                <polygon id="Rectangle-341" fill="#4E2B99" mask="url(#mask-3)" points="4 25 21 25 21 28 4 28"></polygon>
                <polygon id="Rectangle-341" fill="#4E2B99" mask="url(#mask-3)" points="3 30 20 30 20 33 3 33"></polygon>
            </g>
        </g>
    </g>
</svg>