<svg width="44" height="48" viewBox="0 0 44 48" xmlns="http://www.w3.org/2000/svg" xmlns:xlink="http://www.w3.org/1999/xlink">
  <title>
    Sock icon
  </title>
  <defs>
    <path d="M27 0H8v18.824L2.214 26.41C-.8 30.364.377 35.328 4.847 37.5l-.048-.023c4.467 2.173 10.71.875 13.94-2.896l6.958-8.12c.72-.84 1.302-2.41 1.302-3.52V0z" id="a"/>
  </defs>
  <g transform="translate(9 9)" fill="none" fill-rule="evenodd">
    <mask id="b" fill="#fff">
      <use xlink:href="#a"/>
    </mask>
    <use fill="#FFBAC8" xlink:href="#a"/>
    <path d="M16.462 32.63l6.957-8.122c.255-.3.58-1.176.58-1.568V3H11v16.838l-.615.806L4.6 28.23c-1.866 2.446-1.21 5.23 1.56 6.573 4.34 1.697 7.96.56 10.302-2.174zM2.214 26.41L8 18.825V0h19v22.94c0 1.11-.583 2.68-1.302 3.52l-6.958 8.12c-3.22 3.76-9.43 5.06-13.893 2.92C.37 35.292-.79 30.35 2.214 26.41z" fill="#4E2B99" mask="url(#b)"/>
    <path d="M32.333 22.52c0-4.16-3.377-7.53-7.54-7.53-4.166 0-7.543 3.37-7.543 7.53s3.377 7.53 7.542 7.53c4.164 0 7.54-3.37 7.54-7.53zm-12.083 0c0-2.5 2.033-4.53 4.542-4.53 2.51 0 4.54 2.03 4.54 4.53 0 2.5-2.03 4.53-4.54 4.53-2.51 0-4.542-2.03-4.542-4.53zM10 5h15v3H10M10 10h15v3H10" fill="#4E2B99" mask="url(#b)"/>
    <path fill="#4E2B99" mask="url(#b)" d="M10 15h15v3H10M6 20h14v3H6M3 25h18v3H3M2 30h18v3H2"/>
  </g>
</svg>