<svg width="23" height="18" viewBox="0 0 23 18" xmlns="http://www.w3.org/2000/svg">
  <title>
    Twitter
  </title>
  <path d="M22.15 2.13c-.816.362-1.692.606-2.61.716.937-.562 1.658-1.453 1.997-2.514-.878.52-1.85.9-2.885 1.103C17.822.552 16.642 0 15.335 0c-2.51 0-4.545 2.035-4.545 4.544 0 .356.04.703.118 1.036-3.777-.19-7.125-2-9.366-4.748-.39.67-.615 1.452-.615 2.284 0 1.577.802 2.968 2.02 3.783-.744-.025-1.444-.23-2.057-.57v.057c0 2.202 1.566 4.04 3.645 4.456-.382.104-.783.16-1.197.16-.293 0-.578-.03-.855-.082.578 1.806 2.256 3.12 4.244 3.157-1.555 1.218-3.514 1.945-5.643 1.945-.367 0-.73-.022-1.084-.064C2.01 17.248 4.4 18 6.966 18c8.358 0 12.93-6.924 12.93-12.93 0-.196-.006-.392-.014-.587.887-.64 1.658-1.44 2.267-2.352" fill="#FE4F72" fill-rule="evenodd"/>
</svg>