<?xml version="1.0" encoding="UTF-8" standalone="no"?>
<svg width="23px" height="18px" viewBox="0 0 23 18" version="1.1" xmlns="http://www.w3.org/2000/svg" xmlns:xlink="http://www.w3.org/1999/xlink">
    <!-- Generator: Sketch 39.1 (31720) - http://www.bohemiancoding.com/sketch -->
    <title>Fill 1</title>
    <desc>Created with Sketch.</desc>
    <defs></defs>
    <g id="Page-1" stroke="none" stroke-width="1" fill="none" fill-rule="evenodd">
        <g id="1-copy-14" transform="translate(-1081.000000, -3171.000000)" fill="#FE4F72">
            <path d="M1103.149,3173.13081 C1102.33406,3173.49222 1101.45827,3173.73648 1100.53906,3173.84634 C1101.47731,3173.28393 1102.19779,3172.3934 1102.53708,3171.33233 C1101.65911,3171.85302 1100.68659,3172.2312 1099.65153,3172.43504 C1098.82257,3171.55188 1097.6416,3171 1096.33465,3171 C1093.82501,3171 1091.79038,3173.03456 1091.79038,3175.54403 C1091.79038,3175.90018 1091.83064,3176.24701 1091.90809,3176.57958 C1088.13144,3176.39008 1084.78313,3174.58099 1082.5419,3171.83179 C1082.15075,3172.50293 1081.92666,3173.28352 1081.92666,3174.11629 C1081.92666,3175.69278 1082.72897,3177.08366 1083.94826,3177.89852 C1083.20331,3177.87495 1082.50269,3177.67054 1081.88996,3177.33019 C1081.88964,3177.34915 1081.88964,3177.36819 1081.88964,3177.38731 C1081.88964,3179.58901 1083.456,3181.42564 1085.5348,3181.84304 C1085.15345,3181.9469 1084.75202,3182.00239 1084.33754,3182.00239 C1084.04475,3182.00239 1083.76006,3181.97396 1083.48266,3181.92089 C1084.06087,3183.72626 1085.73904,3185.04001 1087.7275,3185.07671 C1086.17231,3186.29544 1084.21294,3187.02191 1082.084,3187.02191 C1081.71724,3187.02191 1081.3555,3187.00044 1081,3186.95847 C1083.01098,3188.24777 1085.39958,3189 1087.96577,3189 C1096.32404,3189 1100.89464,3182.0758 1100.89464,3176.07096 C1100.89464,3175.87393 1100.89027,3175.67795 1100.88152,3175.48311 C1101.76929,3174.84243 1102.53976,3174.04207 1103.149,3173.13081" id="Fill-1"></path>
        </g>
    </g>
</svg>