<svg width="907" height="404" viewBox="0 0 907 404" xmlns="http://www.w3.org/2000/svg">
  <title>
    Camo pattern
  </title>
  <g fill="#FFF1EE" fill-rule="evenodd">
    <path d="M126.586 132.915c17.262-7.493 51.112-14.854 58.04-2.498 6.927 12.356-1 21.23-15.26 25.974-13.19 4.39-31.557 5.23-30.688 15.57 1.084 12.902 73.293 3.943 95.647 9.905 21.85 5.828 45.59 21.613 41.862 40.46-5.386 27.236-31.685.222-42.403 7.242-15.636 10.24 29.394 33.216 29.394 52.696 0 24.475-33.222 54.62-80.304 21.978-45.03-31.217-94.274-77.93-108.323-10.488-4.618 17.06 2.003 54.944-76.55 12.986v-89.41s105.227-74.274 128.586-84.413z"/>
    <path d="M125.754 425.656c-23.652-10.028-23.808-33.994-21.096-43.346 16.73-51.117-42.077-34.024-17.613-80.503 24.464-46.48 49.526-9.057 55.24-3.737 5.715 5.32 40.174 49.877 88.474 40.25 48.298-9.63 45.326-61.69 94.187-47.852 48.86 13.837 24.74 82.82 23.09 87.552-1.648 4.732-19.68 45.153-71.203 34.17-42.226-9.847-88.113-36.605-103.094-22.678-14.98 13.927-24.334 46.173-47.986 36.144z"/>
    <path d="M426.326 230.87c-.74 25.22-8.818 31.09-7.464 47.188 1.353 16.1 33.902 43.147 31.036 59.352-2.866 16.204-23.85 35.735-55.75 21.39-31.898-14.347-23.06-39.184-27.904-52.166-4.846-12.983-24.904-34.097-55.017-39.46-30.114-5.36-27.918-39.895-23.97-55.073 9.765-50.957 80.01-40.955 99.158-32.11 19.147 8.847 40.65 25.66 39.91 50.88zM876 263.295c15-46.5-11.5-104.112-60.42-104.355-31.507-.156-74.462 19.032-70.762 42.394 5.74 36.246 89.182 1.46 84.723 45.76-13.96 126.7 10.96 151.2 66.532 130.82C934 348.793 855 323.793 876 263.293z"/>
    <path d="M720.493 351.025c-39.107 10.822-57.653-3.804-119.602 25.844-61.948 29.648-188.062-37.832-61.788-76.552 126.273-38.72 122.384 11.977 135.485-21.184 13.1-33.16-27.792-50.812 8.618-85.546 36.41-34.734 44.23 16.34 59.183 36.733 14.955 20.394 59.588-10.703 69.612 9.975 9 23.5-10.544 34.17-42 45-31.456 10.832-10.4 54.908-49.507 65.73zM756.323 335.572c2.124-1.54 4.226-2.88 6.303-4.033 50.615-28.112 85.8 54.742 34.11 80.61-17.05 8.532-21.714-11.64-36.05-12.968-46.09-4.267-25.318-48.595-4.363-63.61z"/>
    <path d="M237.996 160.39c26.004 16.405 52.112 4.357 77.055 1.038 42.45-5.648 76.36-9.76 111.544 5.56 33.894 14.755 18.286 38 26.617 62.007 4.79 13.8 25.422 27.928 39.29 33.8 39.664 16.797 144.5 13 156.93-17.2 18.8-45.673-50.25-41.4-40.352-55.905 9.507-13.93 62.422-32.395 81.094-33.91 18.672-1.516 38.992-.516 32.91-21.75C717 112.795 659 98.116 639.25 102.163c-29.616 6.068-62.25 52.132-78.44 41.976-16.193-10.157-12.52-54.65-26.31-66.845S511 60.723 485.477 61.53c-25.524.806-54.477 17.765-72.676 5.21-11.665-8.047-13.8-20.945-22.8-34.445-17.326-25.99-37.46-40.51-54.297-27.37-40.203 31.37 13.297 67.37-14.027 93.19-23.113 21.842-47.7 5.01-86.696 5.516-21.905.285-22.988 40.353 3.016 56.76z"/>
  </g>
</svg>