<svg width="380" height="705" viewBox="0 0 380 705" xmlns="http://www.w3.org/2000/svg">
  <title>
    iPhone frame
  </title>
  <g fill="#5F40A3" fill-rule="evenodd">
    <path d="M35.83 35.665L4.214 700.595l339.956-31.26 31.616-664.93L35.83 35.664zM32 32L380 0l-32 673L0 705 32 32z"/>
    <circle cx="144" cy="75" r="5"/>
    <path d="M165 73h50v4h-50zM190 656c13.807 0 25-11.193 25-25s-11.193-25-25-25-25 11.193-25 25 11.193 25 25 25zm0-4c-11.598 0-21-9.402-21-21s9.402-21 21-21 21 9.402 21 21-9.402 21-21 21z"/>
  </g>
</svg>