<svg width="57" height="62" viewBox="0 0 57 62" xmlns="http://www.w3.org/2000/svg" xmlns:xlink="http://www.w3.org/1999/xlink">
  <title>
    Logo
  </title>
  <defs>
    <circle id="a" cx="16.5" cy="16.5" r="16.5"/>
  </defs>
  <g fill="none" fill-rule="evenodd">
    <path fill="#FFBAC8" d="M5 14h48v48H5z"/>
    <path d="M53.977 6.19c-3.884-4.366-9.103-3.214-10.785 2.385l-.973 3.24c-.702 2.335-.724 2.337-1.745.126l-.996-2.154c-2.558-5.532-7.476-5.242-9.36.552l-.705 2.172c-.253.778-.532 1.335-.785 1.642-.067.082-.11.12-.117.124.063-.037.167-.067.288-.07.123-.002.227.024.29.06-.007-.006-.052-.042-.123-.122-.266-.3-.567-.846-.852-1.615l-2.37-6.41C23.58.252 18.89.533 17.416 6.606l-1.59 6.558c-.193.796-.43 1.374-.66 1.703-.06.087-.102.13-.11.136.057-.04.155-.078.273-.09.12-.01.223.006.29.035-.01-.005-.057-.038-.133-.11-.29-.276-.632-.796-.975-1.538l-.996-2.156c-1.956-4.232-7.086-8.92-10.947-10.13C1.513.687.39 1.274.06 2.327c-.33 1.055.256 2.177 1.31 2.508 2.756.864 7.02 4.758 8.513 7.99l.996 2.156c2.59 5.604 7.378 5.127 8.832-.872l1.59-6.558c.197-.81.428-1.398.644-1.723.05-.077.077-.105.062-.094-.103.074-.262.135-.452.146-.19.01-.356-.03-.47-.093-.016-.01.012.014.07.084.252.297.55.853.838 1.635l2.37 6.41c2.14 5.794 6.947 5.703 8.855-.168l.705-2.172c.76-2.334.892-2.34 1.923-.11l.996 2.154c2.566 5.553 7.446 5.206 9.206-.654l.973-3.24c.78-2.6 2.162-2.906 3.966-.878l1.91 2.147c.733.825 1.997.9 2.823.165.825-.734.9-2 .164-2.824l-1.91-2.146z" fill="#5F40A3"/>
    <g transform="translate(12.5 21.5)">
      <mask id="b" fill="#fff">
        <use xlink:href="#a"/>
      </mask>
      <path d="M16.5 33C7.387 33 0 25.613 0 16.5S7.387 0 16.5 0c7.312 0 13.514 4.757 15.68 11.345l-3.8 1.248C26.706 7.508 21.94 4 16.5 4 9.596 4 4 9.596 4 16.5S9.596 29 16.5 29c4.47 0 8.468-2.367 10.683-6H12.058l4.753-9H11v-4h12.442l-4.762 9H42v4H31.67c-2.523 5.88-8.365 10-15.17 10z" fill="#FFF" mask="url(#b)"/>
    </g>
  </g>
</svg>