<?xml version="1.0" encoding="UTF-8" standalone="no"?>
<svg width="909px" height="396px" viewBox="0 0 909 396" version="1.1" xmlns="http://www.w3.org/2000/svg" xmlns:xlink="http://www.w3.org/1999/xlink">
    <!-- Generator: Sketch 39.1 (31720) - http://www.bohemiancoding.com/sketch -->
    <title>Group 4</title>
    <desc>Created with Sketch.</desc>
    <defs></defs>
    <g id="Page-1" stroke="none" stroke-width="1" fill="none" fill-rule="evenodd">
        <g id="1-copy-14" transform="translate(0.000000, -2843.000000)" fill="#FFF1EE">
            <g id="Group-4" transform="translate(0.000000, 2843.000000)">
                <path d="M128.586442,132.914576 C145.848046,125.422166 179.698343,118.060802 186.625458,130.417106 C193.552574,142.77341 185.624786,151.645601 171.3652,156.390794 C158.176834,160.779348 139.809486,161.619996 140.67807,171.958523 C141.761799,184.861952 213.970841,175.902528 236.325369,181.864988 C258.173556,187.692584 281.913698,203.477949 278.18701,222.324002 C272.801105,249.560802 246.50221,222.546776 235.783505,229.566665 C220.147994,239.806292 265.178265,262.783016 265.178265,282.263282 C265.178265,306.738488 231.956432,336.881951 184.874281,304.241018 C139.84401,273.022643 90.6,226.310802 76.5514615,293.751644 C71.931856,310.81286 78.5528069,348.695984 0,306.738488 L0,217.329062 C0,217.329062 105.227239,143.053805 128.586442,132.914576 Z" id="Page-1"></path>
                <path d="M127.753783,425.656255 C104.101539,415.627555 103.945808,391.661552 106.658423,382.310459 C123.388107,331.192918 64.5805096,348.286273 89.0446519,301.806726 C113.508529,255.326523 138.570879,292.749826 144.285168,298.070043 C150.000114,303.389996 184.459169,347.947185 232.758751,338.319266 C281.058334,328.691346 278.086195,276.631403 326.947052,290.46825 C375.807908,304.305098 351.685819,373.286809 350.037332,378.019642 C348.388845,382.752475 330.357462,423.173009 278.834018,412.190347 C236.607984,402.343193 190.721057,375.585491 175.739912,389.511937 C160.758571,403.438843 151.406027,435.684956 127.753783,425.656255 Z" id="Page-1"></path>
                <path d="M428.32562,230.870007 C427.585582,256.089345 419.507899,261.95929 420.861646,278.058092 C422.215393,294.156893 454.763862,321.204978 451.897855,337.409525 C449.031848,353.614072 428.048922,373.145458 396.149286,358.799344 C364.249651,344.453231 373.089408,319.616109 368.243759,306.633671 C363.397631,293.651087 343.340134,272.537241 313.226699,267.175353 C283.11341,261.812988 285.308527,227.27858 289.256095,212.101288 C299.021704,161.143077 369.267893,171.144826 388.41517,179.991031 C407.562447,188.837236 429.06518,205.650523 428.32562,230.870007 L428.32562,230.870007 Z" id="Page-1"></path>
                <path d="M877.999994,263.295419 C892.999994,216.795422 866.500001,159.182838 817.578881,158.940473 C786.073018,158.784387 743.118305,177.971692 746.81846,201.33355 C752.559326,237.579955 835.999999,202.79542 831.541157,247.094836 C817.578879,373.795424 842.500001,398.295414 898.072166,377.912881 C935.999994,348.795414 857.000001,323.795415 877.999994,263.295419 Z" id="Page-1"></path>
                <path d="M722.492997,351.025164 C683.385574,361.846878 664.839662,347.221003 602.890899,376.869198 C540.941664,406.517556 414.828317,339.037903 541.101826,300.317743 C667.375336,261.597582 663.48645,312.295421 676.586512,279.134122 C689.686575,245.972822 648.795115,228.321778 685.20482,193.587578 C721.614052,158.85354 729.434057,209.926909 744.38832,230.320589 C759.342582,250.71427 803.975998,219.616976 814,240.295421 C823,263.795421 803.456243,274.464168 772,285.295421 C740.543757,296.126675 761.60042,340.20345 722.492997,351.025164 Z" id="Page-1"></path>
                <path d="M758.322597,335.571936 C760.446506,334.033131 762.549375,332.692772 764.626267,331.539253 C815.240504,303.427798 850.427017,386.282204 798.73556,412.149897 C781.685062,420.682391 777.022487,400.509797 762.685062,399.182393 C716.596332,394.915352 737.367726,350.587221 758.322597,335.571936 Z" id="Path"></path>
                <path d="M239.996094,160.389171 C266,176.795416 292.107753,164.747238 317.050781,161.428234 C359.5,155.779795 393.410098,151.669345 428.59375,166.986827 C462.48808,181.742993 446.880406,204.988305 455.210938,228.99464 C460,242.79542 480.631952,256.922619 494.5,262.795436 C534.164067,279.592306 639,275.795436 651.429688,245.596202 C670.228672,199.922093 601.178621,204.193526 611.078125,189.689952 C620.58547,175.760924 673.500004,157.295416 692.171875,155.779796 C710.843746,154.264176 731.164058,155.264169 725.082031,134.029796 C719.000004,112.795424 661.000004,98.1157364 641.25,102.162609 C611.633529,108.231168 579,154.29542 562.808594,144.139171 C546.617188,133.982922 550.289063,89.490731 536.5,77.2954178 C522.710937,65.1001045 513,60.7234943 487.476563,61.5297962 C461.953125,62.3360981 433,79.2954205 414.800781,66.7407337 C403.135243,58.6932907 401,45.7954214 392,32.2954204 C374.673533,6.30571822 354.541085,-8.21458184 337.703125,4.92432747 C297.5,36.2954208 351,72.2954239 323.675781,98.1157337 C300.562776,119.956613 275.975464,103.126306 236.980469,103.631359 C215.075171,103.91507 213.992188,143.982926 239.996094,160.389171 Z" id="Path-2"></path>
            </g>
        </g>
    </g>
</svg>