<svg width="380" height="705" viewBox="0 0 380 705" xmlns="http://www.w3.org/2000/svg">
  <title>
    iPhone frame
  </title>
  <g fill="#5F40A3" fill-rule="evenodd">
    <path d="M35.832 35.635L4.2 701.148l339.97-31.825L375.813 3.838 35.833 35.635zM380 0l-32 673L0 705 32 32 380 0z"/>
    <circle cx="144" cy="74" r="5"/>
    <path d="M165 71h50v6h-50zM215 631c0-13.807-11.193-25-25-25s-25 11.193-25 25 11.193 25 25 25 25-11.193 25-25zm-46 0c0-11.598 9.402-21 21-21s21 9.402 21 21-9.402 21-21 21-21-9.402-21-21z"/>
  </g>
</svg>