<svg width="316" height="641" viewBox="0 0 316 641" xmlns="http://www.w3.org/2000/svg">
  <title>
    iPhone frame
  </title>
  <g fill="#FFBAC8" fill-rule="evenodd">
    <path d="M4 593c0 24.303 19.696 44 43.994 44h220.012C292.304 637 312 617.3 312 593V48c0-24.303-19.696-44-43.994-44H47.994C23.696 4 4 23.7 4 48v545zM47.994 0h220.012C294.513 0 316 21.488 316 48v545c0 26.51-21.487 48-47.994 48H47.994C21.487 641 0 619.512 0 593V48C0 21.49 21.487 0 47.994 0z"/>
    <circle cx="112" cy="42" r="5"/>
    <path d="M133 39h50v6h-50zM183 599c0-13.807-11.193-25-25-25s-25 11.193-25 25 11.193 25 25 25 25-11.193 25-25zm-46 0c0-11.598 9.402-21 21-21s21 9.402 21 21-9.402 21-21 21-21-9.402-21-21z"/>
  </g>
</svg>