<svg width="57" height="62" viewBox="0 0 57 62" xmlns="http://www.w3.org/2000/svg" xmlns:xlink="http://www.w3.org/1999/xlink">
  <title>
    logo
  </title>
  <defs>
    <circle id="b" cx="16.5" cy="16.5" r="16.5"/>
    <path d="M32.18 11.345C30.013 4.757 23.81 0 16.5 0 7.387 0 0 7.387 0 16.5S7.387 33 16.5 33c7.71 0 14.186-5.29 15.996-12.438" id="a"/>
    <mask id="d" x="0" y="0" width="32.496" height="33" fill="#fff">
      <use xlink:href="#a"/>
    </mask>
  </defs>
  <g fill="none" fill-rule="evenodd">
    <path fill="#FFBAC8" d="M5 14h48v48H5z"/>
    <path d="M54.393 9.666l-1.91-2.147c-2.843-3.196-6.143-2.47-7.375 1.63l-.974 3.24c-1.23 4.097-3.68 4.273-5.475.39l-.997-2.155c-1.794-3.882-4.32-3.73-5.64.33l-.706 2.173c-1.32 4.065-3.593 4.11-5.078.094l-2.37-6.41c-1.483-4.013-3.504-3.887-4.51.266l-1.59 6.558c-1.01 4.16-3.28 4.388-5.075.505l-.996-2.155c-1.795-3.88-6.566-8.068-9.732-9.06" stroke="#5F40A3" stroke-width="4" stroke-linecap="round"/>
    <g transform="translate(12.5 21.5)">
      <mask id="c" fill="#fff">
        <use xlink:href="#b"/>
      </mask>
      <use mask="url(#d)" xlink:href="#a" stroke-width="8" stroke="#FFF"/>
      <path stroke="#FFF" stroke-width="4" stroke-linecap="square" mask="url(#c)" d="M40 21H15.375l4.75-9H13"/>
    </g>
  </g>
</svg>
